<?xml version="1.0" encoding="utf-8"?>
<!-- Generator: Adobe Illustrator 16.0.0, SVG Export Plug-In . SVG Version: 6.00 Build 0)  -->
<!DOCTYPE svg PUBLIC "-//W3C//DTD SVG 1.1//EN" "http://www.w3.org/Graphics/SVG/1.1/DTD/svg11.dtd">
<svg version="1.1" id="Calque_1" xmlns="http://www.w3.org/2000/svg" xmlns:xlink="http://www.w3.org/1999/xlink" x="0px" y="0px"
	 width="30px" height="30px" viewBox="0 0 30 30" enable-background="new 0 0 30 30" xml:space="preserve">
<g>
	<path display="none" fill-rule="evenodd" clip-rule="evenodd" fill="#FFFFFF" d="M34,34.229c-11.705,0-23.41,0-35.183,0
		c0-12.401,0-24.824,0-37.363c11.682,0,23.433,0,35.183,0C34,9.271,34,21.738,34,34.229z M25.042,25.853
		c0.8,1.09,1.601,2.181,2.414,3.287c2.056-1.267,3.586-2.209,5.122-3.155c-3.539-5.432-6.955-10.312-14.049-11.115
		c4.753-3.52,5.802-8.412,3.004-11.649c-2.236-2.587-7.308-2.822-9.874-0.456c-3.183,2.935-2.432,7.988,1.996,12.043
		C6.817,15.87,3.229,20.63-0.156,26.039c1.833,1.089,3.408,2.024,5.511,3.273c1.01-1.434,1.991-2.824,3.508-4.978
		c0.208,2.46,0.316,3.758,0.456,5.415c3.532,0,7.022-0.191,10.48,0.058C22.766,30.021,24.68,29.451,25.042,25.853z"/>
	<path fill-rule="evenodd" clip-rule="evenodd" fill="#FFFFFF" d="M22.713,23.594c-0.316,3.143-1.988,3.641-4.58,3.454
		c-3.02-0.218-6.068-0.05-9.152-0.05c-0.122-1.447-0.217-2.581-0.398-4.729c-1.324,1.881-2.182,3.095-3.063,4.347
		c-1.836-1.091-3.212-1.907-4.813-2.858c2.957-4.724,6.09-8.881,12.062-9.809c-3.867-3.542-4.523-7.955-1.743-10.518
		c2.241-2.066,6.67-1.861,8.624,0.398c2.443,2.827,1.527,7.1-2.623,10.173c6.193,0.702,9.178,4.964,12.268,9.707
		c-1.342,0.826-2.678,1.649-4.473,2.756C24.109,25.498,23.41,24.546,22.713,23.594z"/>
</g>
</svg>
