<?xml version="1.0" encoding="utf-8"?>
<!-- Generator: Adobe Illustrator 16.0.0, SVG Export Plug-In . SVG Version: 6.00 Build 0)  -->
<!DOCTYPE svg PUBLIC "-//W3C//DTD SVG 1.1//EN" "http://www.w3.org/Graphics/SVG/1.1/DTD/svg11.dtd">
<svg version="1.1" id="Calque_1" xmlns="http://www.w3.org/2000/svg" xmlns:xlink="http://www.w3.org/1999/xlink" x="0px" y="0px"
	 width="30px" height="30px" viewBox="0 0 30 30" enable-background="new 0 0 30 30" xml:space="preserve">
<g>
	<path display="none" fill-rule="evenodd" clip-rule="evenodd" fill="#FFFFFF" d="M0.758,34.247
		C0.755,21.754,0.755,9.258,0.752-3.242c9.994-0.002,19.991-0.002,29.99-0.005c0.003,12.494,0.003,24.99,0.005,37.49
		C20.754,34.245,10.757,34.245,0.758,34.247z M15.226,29.752c8.242,0.045,13.829-5.288,13.868-13.234
		c0.037-7.905-5.422-13.574-13.142-13.646C7.676,2.796,2.236,8.056,2.203,16.166C2.17,24.287,7.366,29.708,15.226,29.752z"/>
	<path fill-rule="evenodd" clip-rule="evenodd" fill="#FFFFFF" d="M14.396,28.854C6.537,28.81,1.341,23.389,1.374,15.268
		c0.033-8.11,5.473-13.37,13.75-13.294c7.72,0.072,13.179,5.74,13.142,13.646C28.226,23.565,22.639,28.898,14.396,28.854z
		 M14.372,19.646c2.507-0.495,4.522-0.764,6.45-1.328c1.035-0.303,1.92-1.116,2.873-1.699c-0.975-0.544-1.894-1.341-2.936-1.564
		c-1.271-0.273-2.647-0.065-4.202-0.065c0-2.502,0.155-4.501-0.067-6.456c-0.107-0.941-0.926-1.801-1.423-2.698
		c-0.592,0.92-1.503,1.772-1.717,2.773c-0.597,2.795-0.905,5.652-1.157,7.344C13.065,17.433,13.889,18.827,14.372,19.646z"/>
	<path display="none" fill-rule="evenodd" clip-rule="evenodd" fill="#FFFFFF" d="M15.201,20.544
		c-0.483-0.818-1.306-2.213-2.179-3.693c0.252-1.692,0.561-4.549,1.157-7.344c0.213-1.001,1.125-1.854,1.717-2.773
		c0.497,0.896,1.315,1.757,1.423,2.698c0.223,1.955,0.067,3.954,0.067,6.456c1.555,0,2.931-0.208,4.202,0.065
		c1.042,0.224,1.961,1.021,2.936,1.564c-0.953,0.583-1.838,1.396-2.873,1.699C19.723,19.78,17.708,20.049,15.201,20.544z"/>
</g>
</svg>
