<?xml version="1.0" encoding="utf-8"?>
<!-- Generator: Adobe Illustrator 16.0.0, SVG Export Plug-In . SVG Version: 6.00 Build 0)  -->
<!DOCTYPE svg PUBLIC "-//W3C//DTD SVG 1.1//EN" "http://www.w3.org/Graphics/SVG/1.1/DTD/svg11.dtd">
<svg version="1.1" id="Calque_1" xmlns="http://www.w3.org/2000/svg" xmlns:xlink="http://www.w3.org/1999/xlink" x="0px" y="0px"
	 width="70px" height="30px" viewBox="0 0 70 30" enable-background="new 0 0 70 30" xml:space="preserve">
<g>
	<path display="none" fill-rule="evenodd" clip-rule="evenodd" fill="#FFFFFF" d="M9.724,32.912c0-12.063,0-24.125,0-36.188
		c17.129,0,34.259,0,51.388,0c0,12.063,0,24.126,0,36.188C43.982,32.912,26.853,32.912,9.724,32.912z M22.069,24.862
		c4.048-1.159,7.441-1.778,10.396-3.268c0.612-0.308-0.408-3.854-0.672-5.874c-9.583,0.991-9.583,0.991-10.998-1.08
		c4.635-1.165,6.232-2.825,6.467-6.398c0.215-3.277-0.961-5.844-4.079-6.839c-3.004-0.958-5.977-0.557-8.066,2.326
		c-1.863,2.57-1.369,6.072,1.491,9.921c-5.561,3.507-5.562,8.906-5.082,14.714c3.746,0,7.279,0,10.961,0
		c-0.164-0.901-0.339-1.599-0.404-2.307C22.02,25.371,22.069,24.672,22.069,24.862z M39.752,15.697
		c-0.296,0.787-0.593,1.439-0.791,2.12c-1.153,3.98-0.792,4.733,3.297,5.621c2.143,0.464,4.382,0.484,6.777,0.725
		c0,1.384,0,2.758,0,4.126c3.625,0,7.042,0,10.845,0c-0.228-3.013,0.042-5.896-0.775-8.428c-0.784-2.433-2.694-4.502-4.177-6.84
		c2.495-3.047,3.02-6.594,1.188-9.209c-2.041-2.913-5.043-3.384-8.034-2.437c-2.825,0.896-4.366,3.188-4.278,6.388
		c0.105,3.773,1.622,5.446,7.001,7.146C47.328,18.87,43.566,15.568,39.752,15.697z"/>
	<path fill-rule="evenodd" clip-rule="evenodd" fill="#FFFFFF" d="M21.069,24.862c0-0.19-0.05,0.509,0.014,1.196
		c0.065,0.708,0.241,1.405,0.404,2.307c-3.682,0-7.215,0-10.961,0c-0.48-5.809-0.479-11.207,5.082-14.714
		c-2.86-3.85-3.354-7.351-1.491-9.921c2.09-2.883,5.062-3.284,8.066-2.326c3.118,0.995,4.294,3.562,4.079,6.839
		c-0.235,3.574-1.832,5.234-6.467,6.398c1.415,2.071,1.415,2.071,10.998,1.08c0.264,2.021,1.284,5.566,0.672,5.874
		C28.51,23.084,25.117,23.703,21.069,24.862z"/>
	<path fill-rule="evenodd" clip-rule="evenodd" fill="#FFFFFF" d="M38.752,15.697c3.814-0.129,7.576,3.173,11.052-0.789
		c-5.379-1.699-6.896-3.373-7.001-7.146c-0.088-3.2,1.453-5.492,4.278-6.388c2.991-0.947,5.993-0.476,8.034,2.437
		c1.832,2.615,1.308,6.162-1.188,9.209c1.482,2.337,3.393,4.407,4.177,6.84c0.817,2.531,0.548,5.415,0.775,8.428
		c-3.803,0-7.22,0-10.845,0c0-1.368,0-2.742,0-4.126c-2.396-0.24-4.635-0.261-6.777-0.725c-4.089-0.888-4.45-1.641-3.297-5.621
		C38.159,17.137,38.456,16.484,38.752,15.697z"/>
</g>
</svg>
